<svg xmlns="http://www.w3.org/2000/svg" width="512" height="512" viewBox="0 0 512 512">
  <defs>
    <linearGradient id="bg" x1="0%" y1="0%" x2="100%" y2="100%">
      <stop offset="0%" stop-color="#454f61"/>
      <stop offset="100%" stop-color="#383f50"/>
    </linearGradient>
    <clipPath id="iconRoundClip"><rect width="512" height="512" rx="112"/></clipPath>
  </defs>
  <rect width="512" height="512" rx="112" fill="url(#bg)"/>
  <g clip-path="url(#iconRoundClip)" shape-rendering="crispEdges">
    <polygon points="256.00,256.00 40.00,256.00 50.57,189.25" fill="#b74d5b" stroke="none"/>
    <polygon points="256.00,256.00 50.57,189.25 81.25,129.04" fill="#b34b59" stroke="none"/>
    <polygon points="256.00,256.00 81.25,129.04 129.04,81.25" fill="#ab4855" stroke="none"/>
    <polygon points="256.00,256.00 129.04,81.25 189.25,50.57" fill="#a14450" stroke="none"/>
    <polygon points="256.00,256.00 189.25,50.57 256.00,40.00" fill="#953f4a" stroke="none"/>
    <polygon points="256.00,256.00 256.00,40.00 364.00,68.94" fill="#356a9a" stroke="none"/>
    <polygon points="256.00,256.00 364.00,68.94 443.06,148.00" fill="#2e5c86" stroke="none"/>
    <polygon points="256.00,256.00 443.06,148.00 472.00,256.00" fill="#2a547a" stroke="none"/>
    <polygon points="256.00,256.00 472.00,256.00 408.74,408.74" fill="#867522" stroke="none"/>
    <polygon points="256.00,256.00 408.74,408.74 256.00,472.00" fill="#a08c28" stroke="none"/>
    <polygon points="256.00,256.00 256.00,472.00 40.00,256.00" fill="#7bb251" stroke="none"/>
  </g>
  <rect width="512" height="512" rx="112" fill="none" stroke="#2a3140" stroke-width="3"/>
</svg>